<?xml version="1.0" standalone="no"?>
<!DOCTYPE svg PUBLIC "-//W3C//DTD SVG 20010904//EN"
 "http://www.w3.org/TR/2001/REC-SVG-20010904/DTD/svg10.dtd">
<svg version="1.0" xmlns="http://www.w3.org/2000/svg"
 width="512.000000pt" height="512.000000pt" viewBox="0 0 512.000000 512.000000"
 preserveAspectRatio="xMidYMid meet">
<metadata>
Created by potrace 1.14, written by Peter Selinger 2001-2017
</metadata>
<g transform="translate(0.000000,512.000000) scale(0.100000,-0.100000)"
fill="#000000" stroke="none">
<path d="M3150 4383 c-121 -27 -324 -84 -515 -145 -191 -61 -543 -186 -602
-213 -17 -8 -34 -15 -37 -15 -3 0 -25 -9 -49 -19 -23 -11 -89 -40 -147 -66
-146 -65 -255 -132 -305 -188 -82 -90 -191 -265 -394 -633 -73 -133 -162 -281
-196 -330 -35 -49 -108 -152 -163 -229 -351 -493 -458 -734 -408 -921 45 -169
216 -390 502 -651 17 -15 68 -62 114 -103 99 -90 125 -106 221 -127 111 -25
625 -24 854 2 22 2 69 7 105 10 36 3 79 8 95 10 17 3 53 7 80 9 55 5 150 38
410 142 297 118 379 143 460 139 39 -2 86 -7 105 -9 19 -3 51 -8 70 -10 19 -2
91 -11 160 -20 198 -26 201 -26 286 -27 69 -1 88 3 133 25 65 33 181 143 270
255 65 82 210 293 245 356 9 17 30 53 47 80 16 28 70 131 118 230 173 349 210
494 176 688 -17 102 -101 318 -183 477 -88 168 -239 410 -299 475 -10 12 -47
54 -82 95 -98 115 -405 416 -511 501 -88 72 -222 160 -280 185 -70 31 -90 36
-150 39 -36 1 -94 -4 -130 -12z m220 -173 c177 -90 487 -366 760 -675 135
-153 322 -468 420 -706 95 -232 108 -368 52 -529 -29 -85 -111 -273 -136 -313
-7 -12 -33 -58 -56 -102 -116 -218 -323 -518 -444 -643 -88 -91 -99 -96 -226
-88 -58 3 -121 8 -140 11 -19 2 -89 12 -155 20 -66 9 -130 18 -143 20 -12 2
-60 7 -107 10 -93 7 -167 -8 -320 -66 -177 -67 -341 -131 -360 -140 -24 -11
-156 -60 -170 -64 -5 -1 -21 -5 -35 -8 -27 -7 -84 -13 -200 -23 -41 -3 -91 -7
-110 -10 -180 -19 -729 -26 -802 -11 -40 8 -73 34 -232 181 -270 248 -427 436
-469 560 -52 152 53 373 409 864 171 236 222 320 437 712 17 30 45 79 64 108
18 29 33 55 33 58 0 12 150 231 179 261 25 26 141 103 156 103 1 0 41 17 87
39 309 144 968 369 1313 449 65 15 145 8 195 -18z"/>
<path d="M1695 3064 c-61 -31 -113 -69 -142 -103 -24 -28 -73 -157 -123 -321
-18 -58 -36 -115 -41 -127 -10 -27 -2 -78 16 -93 7 -6 27 -15 44 -20 26 -7 36
-5 60 16 16 13 32 36 35 51 23 94 123 380 140 399 12 13 48 37 81 54 74 39 75
40 81 77 4 23 -2 38 -21 62 -33 38 -62 40 -130 5z"/>
<path d="M3541 1730 l-133 -130 -198 0 c-195 0 -197 0 -224 -25 -14 -13 -26
-33 -26 -45 0 -33 27 -77 52 -84 13 -3 112 -6 221 -6 225 0 223 0 322 83 86
73 216 207 226 234 17 45 -26 103 -75 103 -26 -1 -53 -22 -165 -130z"/>
</g>
</svg>
